<svg xmlns="http://www.w3.org/2000/svg" viewBox="0 0 900 500" role="img" aria-label="Bureau et gestion documentaire">
  <defs>
    <linearGradient id="sky" x1="0" y1="0" x2="0" y2="1">
      <stop offset="0%" stop-color="#0f172a"/>
      <stop offset="100%" stop-color="#0891b2"/>
    </linearGradient>
    <linearGradient id="desk" x1="0" y1="0" x2="1" y2="1">
      <stop offset="0%" stop-color="#1e293b"/>
      <stop offset="100%" stop-color="#334155"/>
    </linearGradient>
  </defs>
  <rect width="900" height="500" fill="url(#sky)"/>
  <rect y="320" width="900" height="180" fill="url(#desk)"/>
  <rect x="120" y="180" width="280" height="200" rx="8" fill="#475569"/>
  <rect x="130" y="190" width="260" height="150" rx="4" fill="#0ea5e9" opacity="0.35"/>
  <rect x="480" y="240" width="320" height="140" rx="12" fill="#f8fafc"/>
  <rect x="510" y="270" width="200" height="12" rx="4" fill="#cbd5e1"/>
  <rect x="510" y="295" width="260" height="8" rx="4" fill="#e2e8f0"/>
  <rect x="510" y="315" width="220" height="8" rx="4" fill="#e2e8f0"/>
  <rect x="510" y="335" width="240" height="8" rx="4" fill="#e2e8f0"/>
  <circle cx="720" cy="300" r="40" fill="#0891b2" opacity="0.2"/>
  <text x="720" y="310" text-anchor="middle" font-family="system-ui,sans-serif" font-size="28" font-weight="800" fill="#0891b2">GED</text>
  <rect x="200" y="120" width="180" height="120" rx="6" fill="#fff" opacity="0.15" transform="rotate(-8 290 180)"/>
</svg>
